<svg xmlns="http://www.w3.org/2000/svg" version="1.1" xmlns:xlink="http://www.w3.org/1999/xlink" xmlns:svgjs="http://svgjs.dev/svgjs" width="1920" height="1080" preserveAspectRatio="none" viewBox="0 0 1920 1080"><g mask="url(&quot;#SvgjsMask1034&quot;)" fill="none"><rect width="1920" height="1080" x="0" y="0" fill="rgba(0, 0, 0, 1)"></rect><path d="M82.13 508.12L147.09 545.62L147.09 620.62L82.13 658.12L17.18 620.62L17.18 545.62zM82.13 733.12L147.09 770.62L147.09 845.62L82.13 883.12L17.18 845.62L17.18 770.62zM17.18 845.62L82.13 883.12L82.13 958.12L17.18 995.62L-47.77 958.12L-47.77 883.12zM82.13 958.12L147.09 995.62L147.09 1070.62L82.13 1108.12L17.18 1070.62L17.18 995.62zM147.09 170.62L212.04 208.12L212.04 283.12L147.09 320.62L82.13 283.12L82.13 208.12zM212.04 283.12L277 320.62L277 395.62L212.04 433.12L147.09 395.62L147.09 320.62zM147.09 1070.62L212.04 1108.12L212.04 1183.12L147.09 1220.62L82.13 1183.12L82.13 1108.12zM277 -54.38L341.95 -16.88L341.95 58.12L277 95.62L212.04 58.12L212.04 -16.88zM341.95 508.12L406.9 545.62L406.9 620.62L341.95 658.12L277 620.62L277 545.62zM277 620.62L341.95 658.12L341.95 733.12L277 770.62L212.04 733.12L212.04 658.12zM277 1070.62L341.95 1108.12L341.95 1183.12L277 1220.62L212.04 1183.12L212.04 1108.12zM471.86 58.12L536.81 95.62L536.81 170.62L471.86 208.12L406.9 170.62L406.9 95.62zM406.9 845.62L471.86 883.12L471.86 958.12L406.9 995.62L341.95 958.12L341.95 883.12zM406.9 1070.62L471.86 1108.12L471.86 1183.12L406.9 1220.62L341.95 1183.12L341.95 1108.12zM536.81 -54.38L601.76 -16.88L601.76 58.12L536.81 95.62L471.86 58.12L471.86 -16.88zM601.76 283.12L666.72 320.62L666.72 395.62L601.76 433.12L536.81 395.62L536.81 320.62zM536.81 620.62L601.76 658.12L601.76 733.12L536.81 770.62L471.86 733.12L471.86 658.12zM536.81 845.62L601.76 883.12L601.76 958.12L536.81 995.62L471.86 958.12L471.86 883.12zM536.81 1070.62L601.76 1108.12L601.76 1183.12L536.81 1220.62L471.86 1183.12L471.86 1108.12zM666.72 395.62L731.67 433.12L731.67 508.12L666.72 545.62L601.76 508.12L601.76 433.12zM666.72 620.62L731.67 658.12L731.67 733.12L666.72 770.62L601.76 733.12L601.76 658.12zM861.58 58.12L926.53 95.62L926.53 170.62L861.58 208.12L796.62 170.62L796.62 95.62zM861.58 733.12L926.53 770.62L926.53 845.62L861.58 883.12L796.62 845.62L796.62 770.62zM796.62 845.62L861.58 883.12L861.58 958.12L796.62 995.62L731.67 958.12L731.67 883.12zM861.58 958.12L926.53 995.62L926.53 1070.62L861.58 1108.12L796.62 1070.62L796.62 995.62zM991.49 508.12L1056.44 545.62L1056.44 620.62L991.49 658.12L926.53 620.62L926.53 545.62zM991.49 733.12L1056.44 770.62L1056.44 845.62L991.49 883.12L926.53 845.62L926.53 770.62zM1056.44 -54.38L1121.39 -16.88L1121.39 58.12L1056.44 95.62L991.49 58.12L991.49 -16.88zM1121.39 58.12L1186.35 95.62L1186.35 170.62L1121.39 208.12L1056.44 170.62L1056.44 95.62zM1056.44 170.62L1121.39 208.12L1121.39 283.12L1056.44 320.62L991.49 283.12L991.49 208.12zM1121.39 283.12L1186.35 320.62L1186.35 395.62L1121.39 433.12L1056.44 395.62L1056.44 320.62zM1056.44 620.62L1121.39 658.12L1121.39 733.12L1056.44 770.62L991.49 733.12L991.49 658.12zM1056.44 1070.62L1121.39 1108.12L1121.39 1183.12L1056.44 1220.62L991.49 1183.12L991.49 1108.12zM1186.35 -54.38L1251.3 -16.88L1251.3 58.12L1186.35 95.62L1121.39 58.12L1121.39 -16.88zM1251.3 733.12L1316.25 770.62L1316.25 845.62L1251.3 883.12L1186.35 845.62L1186.35 770.62zM1381.21 283.12L1446.16 320.62L1446.16 395.62L1381.21 433.12L1316.26 395.62L1316.26 320.62zM1381.21 508.12L1446.16 545.62L1446.16 620.62L1381.21 658.12L1316.26 620.62L1316.26 545.62zM1316.26 620.62L1381.21 658.12L1381.21 733.12L1316.26 770.62L1251.3 733.12L1251.3 658.12zM1316.26 845.62L1381.21 883.12L1381.21 958.12L1316.26 995.62L1251.3 958.12L1251.3 883.12zM1316.26 1070.62L1381.21 1108.12L1381.21 1183.12L1316.26 1220.62L1251.3 1183.12L1251.3 1108.12zM1446.16 -54.38L1511.12 -16.88L1511.12 58.12L1446.16 95.62L1381.21 58.12L1381.21 -16.88zM1446.16 620.62L1511.12 658.12L1511.12 733.12L1446.16 770.62L1381.21 733.12L1381.21 658.12zM1511.12 733.12L1576.07 770.62L1576.07 845.62L1511.12 883.12L1446.16 845.62L1446.16 770.62zM1641.02 58.12L1705.98 95.62L1705.98 170.62L1641.02 208.12L1576.07 170.62L1576.07 95.62zM1576.07 170.62L1641.02 208.12L1641.02 283.12L1576.07 320.62L1511.12 283.12L1511.12 208.12zM1576.07 395.62L1641.02 433.12L1641.02 508.12L1576.07 545.62L1511.12 508.12L1511.12 433.12zM1641.02 958.12L1705.98 995.62L1705.98 1070.62L1641.02 1108.12L1576.07 1070.62L1576.07 995.62zM1576.07 1070.62L1641.02 1108.12L1641.02 1183.12L1576.07 1220.62L1511.12 1183.12L1511.12 1108.12zM1705.98 170.62L1770.93 208.12L1770.93 283.12L1705.98 320.62L1641.02 283.12L1641.02 208.12zM1770.93 283.12L1835.88 320.62L1835.88 395.62L1770.93 433.12L1705.98 395.62L1705.98 320.62zM1705.98 620.62L1770.93 658.12L1770.93 733.12L1705.98 770.62L1641.02 733.12L1641.02 658.12zM1705.98 845.62L1770.93 883.12L1770.93 958.12L1705.98 995.62L1641.02 958.12L1641.02 883.12zM1770.93 958.12L1835.88 995.62L1835.88 1070.62L1770.93 1108.12L1705.98 1070.62L1705.98 995.62zM1705.98 1070.62L1770.93 1108.12L1770.93 1183.12L1705.98 1220.62L1641.02 1183.12L1641.02 1108.12zM1835.88 170.62L1900.84 208.12L1900.84 283.12L1835.88 320.62L1770.93 283.12L1770.93 208.12z" stroke="rgba(148, 149, 151, 1)" stroke-width="2"></path><path d="M4.31 443.9L47.61 468.9L47.61 518.9L4.31 543.9L-38.99 518.9L-38.99 468.9zM47.61 668.9L90.92 693.9L90.92 743.9L47.61 768.9L4.31 743.9L4.31 693.9zM90.92 -6.1L134.22 18.9L134.22 68.9L90.92 93.9L47.61 68.9L47.61 18.9zM177.52 293.9L220.82 318.9L220.82 368.9L177.52 393.9L134.22 368.9L134.22 318.9zM264.13 293.9L307.43 318.9L307.43 368.9L264.13 393.9L220.82 368.9L220.82 318.9zM307.43 968.9L350.73 993.9L350.73 1043.9L307.43 1068.9L264.13 1043.9L264.13 993.9zM480.64 68.9L523.94 93.9L523.94 143.9L480.64 168.9L437.34 143.9L437.34 93.9zM610.54 443.9L653.85 468.9L653.85 518.9L610.54 543.9L567.24 518.9L567.24 468.9zM740.45 368.9L783.75 393.9L783.75 443.9L740.45 468.9L697.15 443.9L697.15 393.9zM697.15 443.9L740.45 468.9L740.45 518.9L697.15 543.9L653.85 518.9L653.85 468.9zM740.45 518.9L783.75 543.9L783.75 593.9L740.45 618.9L697.15 593.9L697.15 543.9zM697.15 593.9L740.45 618.9L740.45 668.9L697.15 693.9L653.85 668.9L653.85 618.9zM697.15 893.9L740.45 918.9L740.45 968.9L697.15 993.9L653.85 968.9L653.85 918.9zM783.75 593.9L827.06 618.9L827.06 668.9L783.75 693.9L740.45 668.9L740.45 618.9zM870.36 293.9L913.66 318.9L913.66 368.9L870.36 393.9L827.06 368.9L827.06 318.9zM956.97 293.9L1000.27 318.9L1000.27 368.9L956.97 393.9L913.66 368.9L913.66 318.9zM1043.57 743.9L1086.87 768.9L1086.87 818.9L1043.57 843.9L1000.27 818.9L1000.27 768.9zM1173.48 668.9L1216.78 693.9L1216.78 743.9L1173.48 768.9L1130.17 743.9L1130.17 693.9zM1346.69 818.9L1389.99 843.9L1389.99 893.9L1346.69 918.9L1303.38 893.9L1303.38 843.9zM1389.99 293.9L1433.29 318.9L1433.29 368.9L1389.99 393.9L1346.69 368.9L1346.69 318.9zM1433.29 518.9L1476.6 543.9L1476.6 593.9L1433.29 618.9L1389.99 593.9L1389.99 543.9zM1476.6 893.9L1519.9 918.9L1519.9 968.9L1476.6 993.9L1433.29 968.9L1433.29 918.9zM1649.81 143.9L1693.11 168.9L1693.11 218.9L1649.81 243.9L1606.5 218.9L1606.5 168.9zM1693.11 518.9L1736.41 543.9L1736.41 593.9L1693.11 618.9L1649.81 593.9L1649.81 543.9zM1736.41 443.9L1779.71 468.9L1779.71 518.9L1736.41 543.9L1693.11 518.9L1693.11 468.9zM1909.62 893.9L1952.92 918.9L1952.92 968.9L1909.62 993.9L1866.32 968.9L1866.32 918.9zM1909.62 1043.9L1952.92 1068.9L1952.92 1118.9L1909.62 1143.9L1866.32 1118.9L1866.32 1068.9z" stroke="rgba(68, 70, 71, 1)" stroke-width="2"></path></g><defs><mask id="SvgjsMask1034"><rect width="1920" height="1080" fill="#ffffff"></rect></mask></defs></svg>