<svg xmlns="http://www.w3.org/2000/svg" version="1.1" xmlns:xlink="http://www.w3.org/1999/xlink" xmlns:svgjs="http://svgjs.dev/svgjs" width="1920" height="1080" preserveAspectRatio="none" viewBox="0 0 1920 1080"><g mask="url(&quot;#SvgjsMask1223&quot;)" fill="none"><rect width="1920" height="1080" x="0" y="0" fill="rgba(39, 42, 42, 1)"></rect><path d="M0,689.948C157.953,716.338,327.182,804.161,469.007,729.789C610.925,655.368,650.03,472.316,703.255,321.166C752.464,181.419,772.3,38.015,764.704,-109.948C756.469,-270.365,770.272,-455.34,657.518,-569.742C545.076,-683.828,355.716,-643.311,200.4,-682.501C52.636,-719.786,-89.272,-844.345,-233.291,-794.517C-377.503,-744.622,-405.761,-553.512,-505.708,-438.199C-605.674,-322.864,-803.806,-269.656,-819.774,-117.866C-835.852,34.969,-661.154,134.432,-579.654,264.719C-510.871,374.677,-482.633,511.55,-378.056,588.267C-270.66,667.052,-131.374,667.999,0,689.948" fill="#191b1b"></path><path d="M1920 1943.008C2079.09 1925.359 2208.532 1824.952 2345.171 1741.579 2485.248 1656.108 2673.977 1604.045 2728.929 1449.426 2783.948 1294.618 2630.926 1143.552 2615.8540000000003 979.951 2599.555 803.029 2747.5389999999998 597.767 2637.61 458.187 2528.992 320.27099999999996 2302.834 396.345 2130.376 363.525 1978.438 334.61 1837.356 255.60799999999995 1684.141 276.73800000000006 1517.179 299.76300000000003 1349.496 362.731 1235.558 486.927 1120.317 612.544 1084.9070000000002 787.7090000000001 1060.586 956.435 1036.258 1125.211 1030.304 1298.959 1095.813 1456.394 1162.583 1616.859 1279.887 1754.7910000000002 1429.55 1843.155 1576.185 1929.731 1750.752 1961.784 1920 1943.008" fill="#353939"></path></g><defs><mask id="SvgjsMask1223"><rect width="1920" height="1080" fill="#ffffff"></rect></mask></defs></svg>